<svg width="14" height="14" viewBox="0 0 14 14" fill="none" xmlns="http://www.w3.org/2000/svg">
<path d="M10.2803 12.4973L10.2832 12.4943L10.4043 12.5832L10.4062 12.5812L10.4082 12.5783L12.9424 9.03925C13.0554 8.88165 13.0374 8.677 12.9121 8.54218L12.8516 8.48846C12.7865 8.44134 12.7133 8.41883 12.6416 8.41522L12.6328 8.40643L12.5566 8.41913C12.4552 8.43545 12.3641 8.49118 12.3008 8.57928L9.76562 12.1144C9.67312 12.2183 9.55515 12.2467 9.48926 12.2512H9.48828C9.4203 12.2559 9.29189 12.243 9.18457 12.1437L9.18164 12.1408L7.5498 10.549C7.3915 10.3942 7.14628 10.3983 6.99219 10.5558C6.83794 10.7136 6.84107 10.958 6.99805 11.1125H6.99902L8.63379 12.7082L8.63574 12.7101C8.85855 12.9221 9.15696 13.0402 9.46289 13.0402C9.48333 13.0402 9.50739 13.0386 9.53027 13.0373V13.0383H9.54199C9.87216 13.0165 10.1818 12.8548 10.3906 12.5978L10.3936 12.5959L10.3984 12.59C10.3994 12.5889 10.3996 12.5871 10.4004 12.5861H10.4014L10.4004 12.5871L10.2949 12.508L10.2803 12.4973ZM10.2803 12.4973L10.3848 12.6008C10.3834 12.6019 10.3826 12.6042 10.3809 12.6057C10.3778 12.608 10.3689 12.6149 10.3564 12.6213C10.3498 12.6245 10.3327 12.6311 10.3223 12.634C10.3058 12.6369 10.2645 12.636 10.2402 12.6301C10.2255 12.6233 10.2064 12.6094 10.1895 12.5939C10.1946 12.589 10.201 12.5853 10.2061 12.5803L10.2783 12.4992L10.2803 12.4973ZM6.58301 0.149597C8.4393 0.149597 9.94413 1.65578 9.94434 3.5119C9.94434 4.5447 9.47788 5.46812 8.74512 6.08514L8.59473 6.20428L8.41406 6.33905L8.62793 6.40936C9.45251 6.68032 10.221 7.11666 10.8848 7.69647C11.0514 7.84221 11.0681 8.0858 10.9229 8.25214C10.7766 8.4185 10.532 8.4341 10.3662 8.28925C9.41678 7.45973 8.22398 6.96792 6.97168 6.883L6.7207 6.87128H6.71387L6.58203 6.87421L6.45117 6.87128H6.44434L6.19629 6.883C3.64883 7.05539 1.4767 8.91867 0.951172 11.4416V11.4426C0.910971 11.6346 0.96027 11.8358 1.08398 11.9885L1.08789 11.9933C1.16297 12.0843 1.3325 12.2277 1.58496 12.2277H6.09668C6.31737 12.2279 6.49023 12.4014 6.49023 12.6223C6.49014 12.8442 6.31664 13.0156 6.09668 13.0158H1.58496C1.15045 13.0158 0.746642 12.8242 0.472656 12.4875C0.196922 12.1483 0.0911714 11.7114 0.180664 11.2824C0.482353 9.83416 1.28109 8.51484 2.43066 7.56952C3.05772 7.05389 3.77479 6.66258 4.53809 6.41132L4.75195 6.34003L4.57227 6.20526C3.75316 5.59157 3.22073 4.61504 3.2207 3.51288C3.2207 1.69925 4.65764 0.221481 6.4541 0.153503L6.45508 0.149597H6.58301ZM6.31934 0.951355C5.02492 1.0837 4.00703 2.18397 4.00684 3.5119V3.63007H4.0459L4.05957 3.76483C4.1885 5.01933 5.18621 6.02021 6.45215 6.08319L6.46191 6.08417H6.46289C6.50067 6.08366 6.54425 6.08221 6.58301 6.08221C6.62186 6.08222 6.66224 6.08208 6.7041 6.08319H6.71289L6.96387 6.05878C8.20219 5.87405 9.15723 4.79959 9.15723 3.5119C9.15701 2.09491 7.99866 0.93866 6.58203 0.93866L6.31934 0.951355Z" fill="#545F7D" stroke="#545F7D" stroke-width="0.3"/>
</svg>
