<svg width="12" height="14" viewBox="0 0 12 14" fill="none" xmlns="http://www.w3.org/2000/svg">
<path d="M5.25586 6.23126C6.46964 6.29285 7.62175 6.80178 8.48535 7.66486C9.40584 8.58588 9.92313 9.83518 9.9248 11.1375V12.8875C9.9248 13.0298 9.86845 13.1665 9.76758 13.2674C9.66669 13.3683 9.53 13.4246 9.3877 13.4246H0.637695C0.49539 13.4246 0.358704 13.3683 0.257812 13.2674C0.156935 13.1665 0.100586 13.0298 0.100586 12.8875V11.1375L0.106445 10.8943C0.168043 9.68058 0.676969 8.52845 1.54004 7.66486C2.40361 6.80179 3.55571 6.29282 4.76953 6.23126L5.0127 6.2254L5.25586 6.23126ZM6.93164 7.81427C5.74417 7.12833 4.28123 7.12833 3.09375 7.81427C1.90636 8.49961 1.17482 9.76667 1.1748 11.1375V12.3504H8.85059L8.84961 11.1375C8.84959 9.76685 8.11904 8.49968 6.93164 7.81427ZM10.374 4.14142C10.5851 3.93706 10.9205 3.94051 11.1279 4.14728L11.1963 4.23029C11.3328 4.43631 11.3127 4.71643 11.1338 4.90118L10.585 5.45001L11.1318 5.99689L11.2012 6.07794C11.2619 6.16573 11.2949 6.27046 11.2959 6.37872C11.2969 6.48666 11.2651 6.59179 11.2061 6.68048L11.1387 6.76349C11.0371 6.8656 10.8978 6.92206 10.7539 6.92072C10.6102 6.91936 10.4731 6.86102 10.373 6.75763L9.8252 6.20978L9.27637 6.75861C9.09162 6.93746 8.8115 6.95763 8.60547 6.82111L8.52246 6.75275C8.31571 6.54532 8.31223 6.20993 8.5166 5.99884L9.06543 5.45001L8.5166 4.90118C8.31225 4.6901 8.31569 4.3547 8.52246 4.14728L8.60547 4.07892C8.78194 3.96202 9.01278 3.9599 9.19141 4.07404L9.27637 4.14142L9.8252 4.69025L10.374 4.14142ZM5.0127 0.100403C5.73541 0.100403 6.42852 0.387333 6.93945 0.898254C7.45037 1.4092 7.7373 2.1023 7.7373 2.82501C7.7373 3.54773 7.45037 4.24084 6.93945 4.75177C6.4285 5.2627 5.73541 5.54962 5.0127 5.54962H4.97168L4.96875 5.54669C4.26213 5.53476 3.58738 5.25145 3.08691 4.75177L3.08594 4.75079C2.57592 4.23996 2.28865 3.54752 2.28809 2.82501C2.28809 2.1023 2.57501 1.40918 3.08594 0.898254C3.59689 0.387335 4.28998 0.100403 5.0127 0.100403ZM5.0127 1.17462C4.10162 1.17575 3.36341 1.91395 3.3623 2.82501C3.3623 3.4922 3.76476 4.09417 4.38086 4.34943C4.99754 4.60517 5.7079 4.46379 6.17969 3.992C6.65146 3.52025 6.79285 2.80985 6.53711 2.19318C6.28184 1.5771 5.67986 1.17462 5.0127 1.17462Z" fill="#545F7D" stroke="#545F7D" stroke-width="0.2"/>
</svg>
