<svg width="19" height="12" viewBox="0 0 19 12" fill="none" xmlns="http://www.w3.org/2000/svg">
<path d="M15.4137 1.89703L14.0006 0.483906C13.6879 0.173916 13.2653 -3.43959e-06 12.825 0H6.09187C5.6525 0 5.22797 0.175156 4.91625 0.483906L3.50312 1.89703H0V9.48813H1.9C2.4225 9.48813 2.84406 9.06656 2.84703 8.54703H3.11719L5.62875 10.8152C6.54609 11.5603 7.81969 11.5781 8.76375 10.928C9.13484 11.2486 9.53562 11.4 9.98391 11.4C10.5242 11.4 11.0319 11.1803 11.4327 10.6875C12.0887 10.9458 12.8636 10.7647 13.3327 10.1888L14.1105 9.22984C14.2767 9.025 14.3806 8.79047 14.4341 8.54703H16.153C16.1559 9.06656 16.5805 9.48813 17.1 9.48813H19V1.89703H15.4137ZM1.425 8.53813C1.16375 8.53813 0.95 8.32438 0.95 8.06313C0.95 7.80188 1.16375 7.58813 1.425 7.58813C1.68625 7.58813 1.9 7.80188 1.9 8.06313C1.9 8.32734 1.68625 8.53813 1.425 8.53813ZM13.0031 8.33328L12.2283 9.28922C12.1452 9.39016 11.9967 9.40797 11.8928 9.32484L11.1833 8.74891L10.2927 9.8325C10.1145 10.0492 9.84734 9.975 9.75828 9.90375L8.66578 8.96859L8.20266 9.53859C7.79 10.0463 7.03891 10.1234 6.56094 9.73453L3.67234 7.12203H2.85V3.31906H4.09391L5.92563 1.49031C5.985 1.46656 6.03547 1.44578 6.09484 1.42203H7.77812L6.62922 2.47594C5.75641 3.27453 5.70594 4.62234 6.49859 5.48328C6.93797 5.96422 8.31547 6.70641 9.51188 5.61391L9.75531 5.39125L12.9675 7.99781C13.0684 8.08094 13.0833 8.23234 13.0031 8.33328ZM16.15 7.12203H14.0956C14.0273 7.03891 13.9502 6.96172 13.867 6.89344L10.8181 4.4175L11.1892 4.07906C11.3822 3.90094 11.397 3.60109 11.2189 3.40813L10.8953 3.06078C10.7172 2.86781 10.4173 2.85594 10.2244 3.03109L8.58563 4.53328C8.30359 4.79156 7.82266 4.81234 7.55844 4.53328C7.28234 4.23938 7.30609 3.78813 7.59406 3.52688L9.54156 1.74266C9.76125 1.54078 10.0462 1.43094 10.3431 1.43094L12.828 1.425C12.8903 1.425 12.9497 1.44875 12.9913 1.49328L14.823 3.32203H16.15V7.12203ZM17.575 8.53813C17.3137 8.53813 17.1 8.32438 17.1 8.06313C17.1 7.80188 17.3137 7.58813 17.575 7.58813C17.8363 7.58813 18.05 7.80188 18.05 8.06313C18.05 8.32734 17.8363 8.53813 17.575 8.53813Z" fill="#213F7D"/>
</svg>
