<svg width="15" height="14" viewBox="0 0 15 14" fill="none" xmlns="http://www.w3.org/2000/svg">
<path d="M8.8075 5.03302C8.96922 5.0178 9.11708 5.12991 9.16003 5.28009L9.17957 5.3504L9.17371 5.35333C9.17403 5.35492 9.17435 5.35655 9.17468 5.35822C9.18291 5.39901 9.19428 5.45696 9.20593 5.52814C9.22922 5.6704 9.25444 5.86813 9.2616 6.10138C9.27585 6.56731 9.21891 7.18041 8.92957 7.78302L8.92859 7.78497C8.60062 8.44002 7.96343 9.17722 7.72546 9.43732C7.73332 9.56906 7.74389 9.677 7.75281 9.75372C7.75766 9.7955 7.7614 9.82847 7.76453 9.8504C7.76609 9.86137 7.76759 9.87033 7.76843 9.87579C7.7686 9.87686 7.7683 9.87788 7.76843 9.87872C7.81363 10.0683 7.67376 10.2471 7.49207 10.2703L7.47937 10.2723V10.2713H7.43152C7.28388 10.2713 7.12641 10.1696 7.09558 10.0067C7.09219 9.99681 7.08834 9.98791 7.08679 9.98126C7.08374 9.96818 7.08091 9.95177 7.078 9.93439C7.07218 9.89952 7.0665 9.85349 7.06042 9.79865C7.04861 9.69185 7.03638 9.54793 7.0282 9.37775C7.02175 9.36208 7.01161 9.33963 6.99597 9.30841C6.98108 9.27869 6.96396 9.24286 6.94812 9.20587C6.6964 8.96089 6.3133 8.54789 6.01257 8.04279C5.70709 7.52952 5.47939 6.90941 5.57214 6.26935C5.57817 6.13252 5.66669 6.0304 5.77917 5.99103L5.83093 5.97736C6.37644 5.84293 6.78936 5.99362 7.05359 6.16193C7.39805 5.66867 7.80512 5.38719 8.1405 5.22931C8.31714 5.14619 8.47362 5.09656 8.58972 5.06818C8.68669 5.04449 8.75991 5.03642 8.79382 5.034V5.03302C8.7964 5.03266 8.79907 5.03331 8.80164 5.03302C8.80385 5.03293 8.80582 5.03204 8.8075 5.03204V5.03302ZM8.53796 5.80743C8.37837 5.8669 8.17772 5.96979 7.97253 6.1424C8.0855 6.07973 8.22674 6.0915 8.33777 6.17072C8.49929 6.28622 8.51762 6.49441 8.40906 6.6463V6.64728C8.02959 7.1661 7.84521 7.7599 7.75574 8.29474C7.96109 8.02888 8.16619 7.7287 8.30261 7.45587C8.60831 6.84397 8.59915 6.17871 8.53796 5.80743ZM7.87 6.23224C7.70751 6.38821 7.54685 6.59178 7.40808 6.85822C7.31375 7.05542 7.26142 7.26035 7.24109 7.46466C7.37523 7.05114 7.5722 6.6294 7.86218 6.242C7.86462 6.23859 7.86747 6.23552 7.87 6.23224ZM6.22253 6.61993C6.22587 6.72115 6.23688 6.82267 6.25867 6.92365C6.28055 6.86251 6.32083 6.80605 6.38171 6.76251L6.3905 6.75665C6.46086 6.71652 6.54346 6.70004 6.62292 6.70978C6.52141 6.65879 6.38867 6.61993 6.22253 6.61993Z" fill="#213F7D" stroke="#213F7D" stroke-width="0.2"/>
<path d="M4.2002 4.10461C4.38345 4.10475 4.54004 4.26118 4.54004 4.44446V10.5245C4.53986 10.7077 4.38334 10.8642 4.2002 10.8644C4.01695 10.8644 3.86053 10.7078 3.86035 10.5245V4.44446C3.86035 4.2611 4.01684 4.10461 4.2002 4.10461Z" fill="#213F7D" stroke="#213F7D" stroke-width="0.2"/>
<path d="M2.60022 4.10461C2.78347 4.10475 2.94006 4.26118 2.94006 4.44446V10.5245C2.93989 10.7077 2.78337 10.8642 2.60022 10.8644C2.41697 10.8644 2.26055 10.7078 2.26038 10.5245V4.44446C2.26038 4.2611 2.41687 4.10461 2.60022 4.10461Z" fill="#213F7D" stroke="#213F7D" stroke-width="0.2"/>
<path d="M10.6002 4.10461C10.7835 4.10475 10.9401 4.26118 10.9401 4.44446V10.5245C10.9399 10.7077 10.7834 10.8642 10.6002 10.8644C10.417 10.8644 10.2606 10.7078 10.2604 10.5245V4.44446C10.2604 4.2611 10.4169 4.10461 10.6002 4.10461Z" fill="#213F7D" stroke="#213F7D" stroke-width="0.2"/>
<path d="M12.2002 4.10461C12.3834 4.10475 12.54 4.26118 12.54 4.44446V10.5245C12.5399 10.7077 12.3833 10.8642 12.2002 10.8644C12.0169 10.8644 11.8605 10.7078 11.8604 10.5245V4.44446C11.8604 4.2611 12.0168 4.10461 12.2002 4.10461Z" fill="#213F7D" stroke="#213F7D" stroke-width="0.2"/>
<path d="M7.23608 0.150208C7.34313 0.0858144 7.48397 0.0793873 7.58667 0.156067L12.9207 3.33282C13.0352 3.38501 13.1159 3.51475 13.116 3.64337V3.65607L13.114 3.65509C13.1004 3.7671 13.0323 3.8715 12.9353 3.93146L12.9822 3.98419H2.03979C1.88438 3.98412 1.74201 3.87388 1.71753 3.72443L1.71851 3.72345C1.67893 3.56609 1.75217 3.43378 1.8728 3.35333L1.87671 3.3504L7.23608 0.151184V0.150208ZM3.26538 3.3045H11.5193L7.39917 0.831848L3.26538 3.3045Z" fill="#213F7D" stroke="#213F7D" stroke-width="0.2"/>
<path d="M12.7599 10.9846C12.9432 10.9846 13.0997 11.1411 13.0997 11.3245C13.0996 11.5077 12.9432 11.6643 12.7599 11.6643H2.04016C1.85689 11.6643 1.70045 11.5077 1.70032 11.3245C1.70032 11.1411 1.85681 10.9846 2.04016 10.9846H12.7599Z" fill="#213F7D" stroke="#213F7D" stroke-width="0.2"/>
<path d="M13.5596 11.7846C13.7429 11.7846 13.9004 11.9411 13.9004 12.1245C13.9003 12.3077 13.7428 12.4643 13.5596 12.4643H1.24023C1.05696 12.4643 0.900524 12.3077 0.900391 12.1245C0.900391 11.9411 1.05688 11.7846 1.24023 11.7846H13.5596Z" fill="#213F7D" stroke="#213F7D" stroke-width="0.2"/>
<path d="M14.3601 12.5846C14.5434 12.5847 14.7 12.7411 14.7 12.9244C14.6998 13.1076 14.5433 13.2642 14.3601 13.2643H0.440186C0.256911 13.2643 0.100476 13.1077 0.100342 12.9244C0.100342 12.7411 0.256832 12.5846 0.440186 12.5846H14.3601Z" fill="#213F7D" stroke="#213F7D" stroke-width="0.2"/>
</svg>
